<?xml version="1.0" standalone="no"?>
<!DOCTYPE svg PUBLIC "-//W3C//DTD SVG 20010904//EN"
 "http://www.w3.org/TR/2001/REC-SVG-20010904/DTD/svg10.dtd">
<svg version="1.0" xmlns="http://www.w3.org/2000/svg"
 width="1024.000000pt" height="1024.000000pt" viewBox="0 0 1024.000000 1024.000000"
 preserveAspectRatio="xMidYMid meet">
<metadata>
Created by potrace 1.16, written by Peter Selinger 2001-2019
</metadata>
<g transform="translate(0.000000,1024.000000) scale(0.100000,-0.100000)"
fill="#000000" stroke="none">
<path d="M8254 9492 c-6 -4 -72 -104 -146 -222 -74 -118 -190 -300 -257 -405
-66 -104 -121 -200 -121 -212 0 -12 9 -27 21 -34 35 -18 59 10 187 216 65 105
178 284 250 399 73 114 132 216 132 225 0 33 -38 52 -66 33z"/>
<path d="M8484 8609 c-126 -78 -281 -173 -344 -212 -254 -154 -275 -171 -253
-206 21 -34 53 -24 181 57 70 43 206 127 302 186 417 257 390 238 390 272 0
19 -24 44 -43 44 -2 0 -107 -64 -233 -141z"/>
<path d="M9355 8499 c-27 -11 -68 -26 -90 -34 -177 -63 -359 -127 -518 -183
-192 -66 -215 -81 -202 -122 9 -30 42 -34 98 -11 62 24 345 126 587 210 96 34
186 67 200 74 31 16 39 56 14 74 -23 17 -29 16 -89 -8z"/>
<path d="M7520 8315 c-7 -9 -19 -51 -26 -95 -54 -339 -452 -645 -1189 -914
-141 -52 -155 -55 -242 -55 -100 0 -220 -25 -403 -85 -58 -19 -199 -64 -315
-101 -115 -36 -220 -70 -232 -75 -19 -8 -23 -5 -33 26 -12 35 -35 54 -68 54
-18 0 -42 37 -42 63 0 7 14 25 31 41 39 39 45 67 22 113 -29 60 -55 63 -176
23 -127 -42 -173 -64 -187 -90 -9 -17 -14 -18 -31 -9 -26 13 -74 3 -210 -47
-71 -26 -100 -42 -109 -60 -14 -26 -25 -30 -35 -14 -13 20 -83 8 -189 -33
-131 -51 -155 -74 -136 -132 14 -43 62 -77 102 -72 23 3 29 -2 44 -35 17 -38
17 -39 -5 -60 -23 -21 -24 -41 -6 -103 7 -22 4 -24 -200 -95 -187 -65 -356
-138 -455 -197 -78 -47 -146 -74 -385 -156 l-290 -99 -67 11 c-125 20 -160 15
-183 -29 -18 -35 -7 -107 29 -199 63 -159 134 -181 222 -70 21 28 52 58 69 66
28 15 281 103 296 103 3 0 0 -26 -7 -57 -47 -198 30 -437 183 -573 118 -105
302 -138 496 -90 48 12 227 69 399 126 171 57 312 103 313 102 1 -2 32 -86 69
-188 67 -186 87 -220 128 -220 24 0 142 41 195 69 21 10 67 26 103 35 111 28
260 78 275 92 7 8 64 27 127 43 204 53 248 76 248 129 0 11 -29 102 -65 203
-35 100 -63 183 -62 184 1 1 126 42 277 92 315 105 425 149 511 204 178 116
289 293 305 491 11 125 -30 263 -115 393 -25 39 -47 73 -49 77 -4 8 234 83
398 127 422 110 747 124 915 39 56 -29 142 -94 160 -122 8 -12 26 -28 40 -34
21 -10 29 -8 52 12 l28 24 -24 94 c-28 107 -158 483 -227 656 -51 128 -177
386 -202 415 -19 21 -55 22 -72 2z m128 -312 c76 -166 257 -662 249 -686 -7
-23 -48 56 -112 223 -120 310 -201 550 -186 550 4 0 26 -39 49 -87z m-59 -205
c33 -91 83 -223 111 -293 28 -70 49 -129 47 -131 -1 -2 -27 4 -57 12 -78 21
-275 29 -405 15 -202 -22 -461 -82 -803 -186 -105 -32 -127 -36 -149 -26 -15
7 -22 16 -17 20 5 5 59 27 119 50 525 200 855 413 1036 670 28 40 45 57 50 49
4 -7 34 -88 68 -180z m-2649 -562 c0 -14 -48 -37 -130 -62 -55 -17 -50 -17
-50 -1 0 7 21 19 48 26 26 7 63 21 82 31 44 23 50 23 50 6z m1277 -98 c144
-53 251 -183 297 -362 30 -115 0 -270 -73 -383 -68 -104 -147 -169 -276 -229
-99 -46 -667 -236 -676 -227 -4 5 -10 18 -13 29 -6 20 12 28 307 127 374 126
447 159 539 245 99 93 148 207 148 342 0 243 -184 437 -401 424 -88 -5 -299
-73 -1039 -334 -439 -154 -525 -184 -675 -234 -482 -161 -768 -262 -830 -294
-290 -151 -365 -527 -150 -747 92 -94 198 -122 340 -90 43 9 222 66 398 126
177 60 324 109 327 109 7 0 33 -51 28 -55 -2 -1 -147 -51 -323 -109 -343 -115
-454 -146 -525 -146 -101 0 -220 52 -292 127 -43 46 -97 143 -120 217 -17 56
-20 84 -15 155 16 238 152 408 422 529 130 58 565 222 815 307 118 40 276 94
350 120 123 43 268 91 807 266 251 81 325 100 418 108 99 8 145 4 212 -21z
m-1647 -38 c-21 -16 -140 -60 -164 -60 -47 0 115 76 169 79 18 0 18 -1 -5 -19z
m195 -16 c18 5 25 -1 40 -33 17 -38 17 -39 -5 -61 -22 -22 -23 -45 -5 -92 5
-12 -1 -18 -26 -23 -18 -4 -34 -4 -36 1 -2 5 -12 24 -24 43 -15 24 -25 32 -40
28 -15 -4 -24 3 -39 33 l-19 37 25 22 c13 12 29 33 34 47 10 24 10 24 41 9 17
-9 41 -14 54 -11z m144 -44 c0 -8 -7 1 -14 20 -18 46 -17 64 0 25 8 -16 14
-37 14 -45z m1263 -36 c95 -32 173 -134 198 -258 22 -110 -10 -228 -88 -316
l-45 -52 -20 38 c-28 57 -56 84 -112 110 -86 41 -118 35 -441 -75 -159 -54
-296 -102 -305 -105 -11 -5 -19 -1 -24 11 -55 140 -135 358 -135 367 0 7 37
25 83 40 45 15 225 76 399 136 174 60 327 110 340 113 50 9 107 6 150 -9z
m-1948 -7 c-5 -14 -100 -54 -151 -63 -60 -12 -34 11 50 42 94 36 108 39 101
21z m181 -34 c31 5 37 3 50 -23 20 -39 19 -45 -11 -75 -25 -26 -27 -40 -8 -89
4 -11 -2 -19 -21 -26 -32 -12 -45 -6 -45 21 0 27 -37 61 -63 57 -17 -2 -26 6
-39 36 -22 46 -22 56 -4 56 8 0 24 16 36 35 21 34 22 34 46 19 16 -11 36 -15
59 -11z m162 -49 c-3 -3 -13 8 -21 25 -23 43 -19 52 5 13 12 -18 19 -35 16
-38z m374 20 c-19 -8 -42 -13 -50 -11 -9 2 -1 8 19 14 52 16 70 14 31 -3z
m-750 -100 c5 -15 8 -29 5 -31 -2 -2 -8 10 -14 26 -13 38 -5 41 9 5z m414 -15
c-22 -10 -47 -18 -55 -18 -19 1 60 38 80 37 8 0 -3 -8 -25 -19z m-315 -94 c0
-6 -87 -45 -101 -45 -25 0 -3 18 39 32 57 18 62 19 62 13z m817 -37 c13 -17
108 -268 241 -638 171 -475 202 -562 202 -575 0 -11 -87 -43 -94 -34 -1 2 -10
24 -19 49 -9 25 -45 124 -80 220 -36 96 -124 339 -196 540 -72 201 -136 376
-142 389 -12 28 -13 25 31 44 44 19 46 20 57 5z m-113 -247 c37 -101 66 -184
64 -186 -18 -15 -81 -36 -88 -29 -5 5 -26 61 -48 124 -22 63 -52 146 -67 184
-14 38 -24 69 -23 71 16 10 84 31 89 26 3 -3 36 -89 73 -190z m-182 -61 c37
-102 118 -324 179 -495 61 -170 129 -357 150 -414 21 -57 39 -110 39 -118 0
-13 -21 -24 -71 -36 -25 -7 -27 -4 -82 151 -30 86 -91 254 -135 372 -101 270
-239 659 -243 685 -3 15 5 23 31 32 19 7 41 11 49 10 9 -1 41 -75 83 -187z
m-188 -69 c37 -101 66 -184 64 -185 -23 -12 -81 -36 -83 -34 -2 2 -32 82 -68
178 -36 96 -68 182 -71 190 -5 12 5 20 36 32 24 8 46 13 49 9 4 -3 36 -89 73
-190z m1475 115 c33 -31 48 -73 32 -89 -8 -8 -11 -6 -11 7 0 32 -55 76 -95 76
-32 0 -240 -64 -534 -165 -81 -28 -106 -33 -113 -23 -4 7 -8 16 -8 19 0 3 107
43 238 88 130 45 262 90 292 101 80 29 161 23 199 -14z m-1713 -23 c27 -65
239 -641 284 -773 23 -69 64 -186 92 -260 34 -91 47 -140 41 -149 -14 -22 -83
-44 -88 -28 -2 7 -54 147 -116 312 -61 165 -151 413 -199 550 -48 138 -97 274
-108 303 l-20 53 31 13 c52 23 65 19 83 -21z m-138 -190 c34 -93 62 -175 62
-184 0 -10 -11 -20 -27 -23 -46 -12 -133 -75 -156 -114 -51 -85 -58 -142 -26
-211 11 -25 16 -48 12 -52 -14 -12 -334 -119 -415 -138 -93 -22 -152 -15 -211
26 -95 66 -155 199 -144 319 15 154 119 285 279 351 72 29 537 191 554 192 6
1 39 -74 72 -166z m1790 105 c32 -32 21 -37 -351 -162 -227 -76 -249 -81 -258
-65 -5 10 -9 24 -9 31 0 9 74 38 208 82 114 38 243 81 287 97 91 32 106 34
123 17z m-2828 -155 c0 -5 -9 -19 -19 -32 -14 -19 -65 -40 -203 -87 -166 -57
-184 -61 -195 -46 -7 8 -13 18 -13 21 0 5 401 147 423 150 4 1 7 -2 7 -6z
m1894 -19 c8 -20 9 -18 -29 -31 -16 -6 -37 -14 -46 -18 -11 -4 -18 0 -22 15
-4 17 1 24 26 35 43 19 64 18 71 -1z m-2420 -126 c7 -13 19 -40 26 -60 10 -35
9 -40 -15 -73 -15 -19 -31 -35 -35 -35 -11 0 -60 115 -67 155 l-6 35 41 0 c32
0 45 -5 56 -22z m2468 -39 c-4 -4 -24 -12 -46 -19 -32 -10 -40 -10 -47 1 -16
26 -9 38 34 57 l42 19 12 -26 c6 -14 8 -29 5 -32z m-422 31 c8 -15 8 -20 -2
-20 -7 0 -26 -7 -42 -15 -32 -17 -46 -12 -46 15 0 11 11 22 28 28 40 15 50 14
62 -8z m-370 -122 c0 -4 -9 -8 -19 -8 -50 0 -111 -60 -111 -110 0 -59 27 -64
77 -15 46 45 72 53 90 29 28 -38 13 -55 -76 -86 -78 -27 -85 -28 -108 -13 -76
50 -31 182 78 226 40 16 45 16 57 1 6 -9 12 -19 12 -24z m423 -10 c4 -12 5
-23 4 -23 -1 -1 -21 -9 -45 -18 l-42 -17 -11 26 c-11 31 -11 30 21 43 42 17
67 13 73 -11z m417 -7 c16 -31 13 -36 -37 -49 -37 -10 -48 -10 -55 0 -14 23
-9 34 25 51 43 21 54 21 67 -2z m-371 -133 c11 -29 8 -34 -26 -41 -16 -3 -35
-8 -44 -12 -12 -4 -18 1 -22 20 -4 23 0 29 27 41 44 19 55 17 65 -8z m473
-148 c32 -85 58 -162 58 -171 0 -12 -12 -18 -42 -23 -23 -4 -45 -3 -49 1 -4 4
-28 67 -54 138 -25 72 -50 140 -55 153 -6 13 -10 25 -10 28 0 8 64 34 79 31 9
-1 38 -64 73 -157z m-416 -7 c39 -92 104 -288 100 -300 -3 -7 -15 -13 -26 -13
-12 0 -30 -5 -41 -10 -10 -6 -19 -9 -19 -8 0 2 -27 80 -59 175 l-60 170 32 11
c51 16 56 14 73 -25z"/>
<path d="M8356 8134 c-11 -28 -6 -41 19 -52 43 -20 76 9 55 49 -13 24 -65 26
-74 3z"/>
<path d="M8091 8047 c-73 -36 -92 -58 -75 -84 18 -28 39 -27 114 8 74 34 96
63 70 94 -18 21 -37 18 -109 -18z"/>
<path d="M8260 7701 c-20 -39 18 -71 85 -71 29 0 282 -30 380 -45 39 -6 144
-18 260 -30 33 -3 114 -13 180 -21 161 -21 176 -21 191 1 17 23 17 27 2 48
-11 14 -56 22 -228 42 -118 13 -273 31 -345 40 -71 9 -168 20 -215 26 -47 5
-114 14 -150 19 -105 15 -148 13 -160 -9z"/>
<path d="M4435 7630 c-1640 -4 -2176 -8 -2196 -17 -42 -19 -98 -73 -122 -117
l-22 -41 0 -1771 0 -1771 31 -59 31 -60 -91 -84 c-83 -76 -275 -249 -721 -649
-88 -79 -173 -162 -188 -185 l-29 -41 4 -170 c4 -175 8 -196 51 -243 l20 -22
-51 0 c-44 0 -54 -4 -68 -26 -15 -22 -15 -27 -2 -40 13 -13 503 -15 4175 -15
2288 0 4168 3 4176 7 22 8 31 42 17 59 -10 12 -47 15 -193 15 l-180 0 21 23
c44 47 52 86 52 257 0 121 -4 168 -15 189 -8 16 -83 91 -167 168 -257 236
-607 553 -726 657 -61 55 -112 101 -112 102 0 1 12 26 28 56 l27 53 0 1785 0
1785 -28 47 c-31 54 -88 101 -114 96 -28 -5 -28 -52 0 -90 14 -18 33 -49 43
-68 18 -34 19 -95 19 -1775 l0 -1740 -25 -49 c-14 -27 -38 -59 -54 -70 l-27
-21 -2854 0 -2854 0 -28 21 c-15 11 -40 44 -56 74 l-27 54 2 1735 c3 1668 4
1737 22 1773 10 21 35 48 55 60 l36 23 2170 5 c2253 5 2203 4 2218 44 8 19
-30 47 -58 44 -11 -2 -996 -5 -2190 -8z m3790 -4040 c77 -69 221 -199 320
-290 99 -90 225 -205 280 -254 227 -206 251 -234 209 -250 -9 -3 -672 -6
-1474 -6 l-1459 0 -43 81 c-24 45 -53 92 -65 105 l-22 24 -799 0 -799 0 -20
-22 c-12 -13 -39 -60 -62 -106 l-41 -82 -1504 2 c-828 2 -1507 6 -1511 10 -18
18 22 61 218 235 214 191 341 305 614 554 l152 139 48 -10 c72 -16 5741 -9
5768 7 24 14 16 20 190 -137z m-2294 -680 c5 0 39 -65 39 -75 0 -3 -360 -5
-800 -5 l-801 0 17 33 c9 17 20 37 24 42 6 7 269 9 762 8 414 -1 756 -2 759
-3z m100 -187 c10 -10 9 -16 -1 -28 -11 -13 -106 -15 -864 -13 -824 3 -851 4
-854 22 -2 10 2 22 10 27 22 15 1695 6 1709 -8z m-1816 -45 c7 -30 57 -78 83
-78 9 -1 408 0 887 0 808 1 872 2 900 18 18 11 34 31 40 50 l9 32 1447 0 c796
0 1454 3 1463 6 14 5 16 -5 16 -79 0 -47 -5 -98 -11 -114 -14 -38 -57 -83 -96
-99 -49 -21 -7591 -21 -7631 0 -70 37 -102 103 -102 213 l0 78 1495 0 1495 0
5 -27z"/>
<path d="M2528 3652 c-30 -2 -45 -12 -75 -48 -21 -25 -103 -120 -183 -212 -80
-93 -156 -182 -168 -199 -36 -50 -26 -94 26 -122 32 -17 5952 -18 5996 -1 52
19 70 65 44 113 -6 12 -46 60 -88 107 -81 91 -206 240 -254 304 -16 21 -43 44
-61 52 -27 11 -466 13 -2616 12 -1421 -1 -2601 -4 -2621 -6z m317 -93 c0 -22
-53 -28 -196 -22 -179 8 -184 26 -8 33 165 7 204 5 204 -11z m415 11 c0 -5
-11 -17 -24 -26 -19 -12 -46 -15 -108 -13 -46 1 -104 2 -130 2 -39 0 -48 3
-48 18 0 10 8 19 18 22 36 8 292 6 292 -3z m906 0 c139 0 174 -3 174 -13 0
-11 -30 -15 -128 -20 -155 -7 -272 1 -272 19 0 15 20 24 38 18 8 -2 92 -4 188
-4z m697 1 c4 -1 7 -7 7 -15 0 -11 -25 -15 -112 -18 -182 -6 -338 2 -338 18 0
11 40 14 203 16 111 2 209 2 217 1 8 -1 18 -2 23 -2z m2435 1 c12 -1 22 -9 22
-17 0 -12 -16 -16 -72 -17 -193 -7 -238 -2 -238 23 0 4 15 9 33 11 31 3 210 3
255 0z m-3440 -14 c-7 -19 -138 -27 -335 -21 -136 5 -173 9 -173 20 0 10 48
13 256 13 200 0 255 -3 252 -12z m1549 -4 c5 -14 -200 -23 -347 -16 -76 4
-100 8 -100 19 0 11 38 13 222 11 151 -2 223 -7 225 -14z m490 0 c5 -15 -158
-24 -298 -17 -83 5 -109 9 -109 20 0 11 36 13 202 11 135 -2 203 -7 205 -14z
m573 2 c0 -10 -32 -14 -144 -18 -201 -7 -346 1 -346 18 0 12 45 14 245 14 200
0 245 -2 245 -14z m440 0 c0 -10 -31 -15 -134 -20 -143 -8 -201 -2 -210 20 -4
12 24 14 169 14 141 0 175 -3 175 -14z m837 -2 c2 -7 -41 -13 -131 -17 -146
-7 -196 -2 -196 19 0 12 28 14 162 12 105 -2 163 -7 165 -14z m-5057 -117 c0
-31 -24 -37 -157 -37 -73 0 -133 3 -133 7 0 3 8 14 18 24 14 15 36 18 145 18
98 1 127 -2 127 -12z m386 1 c3 -5 0 -15 -6 -23 -10 -12 -43 -15 -156 -15 -79
0 -144 3 -144 8 1 17 17 31 45 35 55 8 255 5 261 -5z m514 -13 l0 -25 -211 0
c-193 0 -210 1 -207 17 5 26 39 31 236 32 l182 1 0 -25z m468 -2 l3 -23 -191
0 c-175 0 -191 1 -188 17 5 26 40 31 213 30 158 -2 160 -2 163 -24z m521 21
c21 -5 31 -12 31 -25 0 -18 -12 -19 -230 -19 -221 0 -230 1 -230 19 0 14 8 21
28 24 45 7 367 7 401 1z m549 0 c13 -4 22 -14 22 -25 0 -18 -11 -19 -225 -19
-215 0 -225 1 -225 19 0 11 6 22 13 24 17 8 388 8 415 1z m536 0 c9 -3 16 -15
16 -25 0 -18 -11 -19 -219 -19 -121 0 -222 4 -225 8 -6 11 5 28 24 35 20 7
384 9 404 1z m472 -2 c6 -4 13 -15 17 -24 6 -17 -7 -18 -188 -18 -186 0 -195
1 -195 19 0 11 8 22 18 24 29 8 336 7 348 -1z m502 -19 l3 -23 -194 0 c-147 0
-196 3 -200 13 -12 33 3 36 196 34 191 -2 192 -2 195 -24z m452 7 c5 -8 10
-18 10 -22 0 -5 -80 -8 -179 -8 -168 0 -179 1 -184 19 -3 11 -2 22 1 25 3 4
81 5 174 4 137 -3 171 -6 178 -18z m390 0 c5 -8 10 -18 10 -23 0 -4 -66 -6
-147 -5 -143 3 -148 4 -151 24 -3 22 -1 22 138 20 113 -1 143 -4 150 -16z
m358 4 c12 -8 22 -19 22 -25 0 -5 -54 -9 -128 -9 -128 0 -152 6 -152 37 0 20
228 18 258 -3z m-5020 -129 c2 -2 2 -11 -1 -20 -6 -13 -41 -15 -266 -15 -233
0 -260 2 -254 16 3 9 15 20 27 25 20 9 485 4 494 -6z m340 5 c135 0 142 -1
142 -20 0 -17 -7 -20 -47 -21 -114 -1 -348 2 -351 6 -2 2 6 13 18 25 18 18 29
21 59 16 20 -3 100 -6 179 -6z m665 0 c10 0 17 -8 17 -20 0 -19 -7 -20 -225
-20 -216 0 -225 1 -225 19 0 29 28 30 433 21z m979 0 c71 0 78 -2 78 -19 0
-18 -9 -20 -122 -23 -68 -2 -165 -2 -215 0 -83 3 -93 5 -93 22 0 26 20 30 154
25 66 -3 154 -5 198 -5z m1096 0 c6 0 12 -9 12 -20 0 -19 -7 -20 -205 -20
-197 0 -205 1 -205 20 0 18 8 20 93 22 74 2 192 2 305 -2z m503 -11 c5 -8 9
-17 9 -21 0 -5 -92 -8 -205 -8 -196 0 -205 1 -205 19 0 25 15 26 228 25 130 0
166 -3 173 -15z m459 6 c5 -3 10 -13 10 -21 0 -12 -31 -14 -190 -14 -181 0
-190 1 -190 19 0 15 8 21 33 23 55 5 326 0 337 -7z m491 -6 c5 -8 9 -17 9 -21
0 -5 -90 -8 -200 -8 -191 0 -200 1 -200 19 0 11 8 22 18 24 9 2 95 4 190 2
137 -1 176 -5 183 -16z m598 -6 l26 -22 -256 -1 c-246 0 -257 1 -262 19 -7 27
4 29 252 28 208 -1 216 -2 240 -24z m-3589 -3 c0 -19 -7 -20 -215 -20 -208 0
-215 1 -215 20 0 19 7 20 215 20 208 0 215 -1 215 -20z m1043 0 c5 -20 0 -20
-214 -20 -212 0 -219 1 -219 20 0 19 7 20 214 20 205 0 214 -1 219 -20z m1177
-110 c131 0 159 -3 164 -15 5 -13 -22 -15 -204 -15 -176 0 -210 2 -210 14 0
14 50 26 78 19 8 -1 85 -3 172 -3z m1080 -16 c12 -12 -6 -14 -137 -14 -118 0
-153 3 -162 14 -16 20 4 22 159 18 91 -3 129 -8 140 -18z m401 16 c44 -24 15
-30 -143 -30 -126 1 -167 4 -182 15 -17 13 -1 15 140 18 87 1 160 4 162 5 2 1
12 -3 23 -8z m-5513 -12 c-4 -10 -52 -14 -186 -16 -159 -2 -181 -1 -176 13 5
13 34 15 186 15 139 0 179 -3 176 -12z m460 0 c-4 -10 -52 -14 -186 -16 -159
-2 -181 -1 -176 13 5 13 34 15 186 15 139 0 179 -3 176 -12z m542 -3 c0 -13
-32 -15 -225 -15 -205 0 -238 3 -218 23 3 4 105 7 225 7 187 0 218 -2 218 -15z
m460 0 c0 -13 -27 -15 -185 -15 -158 0 -185 2 -185 15 0 13 27 15 185 15 158
0 185 -2 185 -15z m560 0 c0 -13 -33 -15 -240 -15 -219 0 -253 3 -233 23 3 4
111 7 240 7 200 0 233 -2 233 -15z m570 0 c0 -13 -33 -15 -240 -15 -207 0
-240 2 -240 15 0 13 33 15 240 15 207 0 240 -2 240 -15z m548 -2 c3 -10 -48
-13 -232 -13 -216 0 -249 3 -229 24 4 3 108 5 232 4 169 -2 225 -6 229 -15z
m552 2 c0 -13 -33 -15 -235 -15 -204 0 -234 2 -229 15 5 13 41 15 235 15 197
0 229 -2 229 -15z m1024 0 c5 -13 -23 -15 -214 -15 -201 0 -233 4 -213 23 3 4
100 7 214 7 175 0 208 -2 213 -15z"/>
<path d="M8235 2514 c-22 -23 -15 -56 17 -73 24 -14 28 -14 47 3 23 21 27 56
9 74 -17 17 -54 15 -73 -4z"/>
<path d="M8386 2514 c-9 -8 -16 -22 -16 -30 0 -19 36 -54 55 -54 16 0 55 34
55 48 0 4 -7 18 -16 30 -18 26 -56 29 -78 6z"/>
<path d="M8536 2514 c-9 -8 -16 -22 -16 -30 0 -19 36 -54 55 -54 19 0 55 35
55 53 0 20 -33 47 -58 47 -11 0 -28 -7 -36 -16z"/>
<path d="M8686 2514 c-24 -23 -19 -51 10 -71 29 -18 47 -12 71 24 13 19 12 24
-6 42 -25 25 -54 27 -75 5z"/>
<path d="M8830 2511 c-16 -31 -12 -49 15 -67 23 -15 27 -15 50 0 43 28 26 86
-25 86 -19 0 -33 -7 -40 -19z"/>
<path d="M2362 7367 l-22 -23 0 -1668 0 -1668 29 -29 30 -29 2744 2 2745 3 26
24 26 24 0 1432 c0 1100 -3 1434 -12 1443 -18 18 -56 14 -68 -7 -7 -13 -10
-476 -10 -1425 l0 -1406 -2710 0 -2710 0 0 1633 0 1632 1068 0 c1005 0 1069 1
1095 18 29 19 34 36 15 55 -9 9 -271 12 -1118 12 l-1107 0 -21 -23z"/>
<path d="M5128 7379 c-26 -15 -22 -46 7 -65 24 -15 66 -16 464 -12 439 6 471
8 493 42 4 6 0 19 -9 28 -15 17 -48 18 -477 18 -294 0 -467 -4 -478 -11z"/>
<path d="M5307 4843 c-4 -3 -7 -19 -7 -34 0 -28 15 -39 56 -39 l24 0 0 -152
c0 -84 -3 -197 -7 -250 -5 -87 -8 -97 -26 -100 -29 -4 -45 -33 -31 -55 9 -15
29 -19 107 -21 96 -3 96 -3 103 23 9 34 0 53 -28 57 -22 3 -23 8 -26 93 -4
113 1 131 41 155 43 27 73 25 103 -5 24 -24 25 -29 22 -132 l-3 -108 -27 -3
c-18 -2 -28 -11 -32 -29 -12 -44 7 -53 115 -53 89 0 98 2 104 20 10 32 -4 60
-30 60 -22 0 -23 2 -27 118 -4 133 -21 182 -72 213 -37 23 -120 25 -156 4 -14
-8 -29 -14 -34 -15 -5 0 -6 47 -3 111 9 146 7 149 -87 149 -40 0 -76 -3 -79
-7z"/>
<path d="M3254 4832 c-15 -10 -24 -40 -18 -57 3 -8 21 -17 39 -21 31 -6 33 -8
39 -66 8 -78 8 -200 0 -316 -7 -91 -7 -91 -36 -97 -36 -8 -57 -47 -38 -70 10
-12 36 -15 126 -15 104 0 114 2 124 20 22 40 0 66 -52 62 -21 -2 -33 61 -24
122 5 31 15 49 36 64 l29 22 79 -117 c43 -65 83 -130 90 -145 11 -27 14 -28
85 -28 75 0 97 9 97 41 0 23 -37 49 -70 49 -21 0 -41 22 -123 137 l-98 136 93
97 c67 70 100 98 119 99 40 2 61 23 57 56 l-3 30 -105 3 c-90 2 -107 0 -117
-15 -19 -25 -16 -54 7 -60 11 -3 20 -8 20 -12 0 -3 -45 -51 -100 -106 l-100
-100 0 103 0 102 34 0 c54 0 86 46 54 78 -13 13 -225 17 -244 4z"/>
<path d="M5000 4614 c-65 -28 -89 -84 -51 -118 24 -22 53 -14 71 19 25 47 90
44 110 -6 19 -46 9 -56 -64 -61 -81 -7 -128 -34 -149 -87 -28 -68 2 -139 70
-167 44 -19 80 -17 131 6 34 15 42 16 42 5 0 -20 37 -27 85 -18 33 8 42 14 54
46 18 48 3 71 -28 43 -19 -17 -20 -17 -30 3 -6 11 -11 71 -11 134 0 102 -2
118 -23 148 -42 64 -130 86 -207 53z m140 -267 c0 -45 -23 -73 -66 -81 -82
-16 -103 78 -24 107 8 3 32 6 53 6 35 1 37 0 37 -32z"/>
<path d="M5936 4620 c-64 -19 -102 -86 -70 -121 23 -26 49 -24 68 6 45 69 126
46 126 -35 0 -17 -7 -20 -53 -20 -71 0 -150 -38 -168 -82 -29 -70 0 -147 63
-173 49 -19 72 -19 131 2 32 12 50 14 55 7 21 -31 113 -20 132 16 25 46 -7 95
-36 55 -8 -10 -16 -16 -20 -13 -3 3 -6 62 -8 130 -2 103 -6 131 -22 159 -40
69 -113 94 -198 69z m122 -277 c6 -63 -74 -108 -120 -66 -49 44 -2 105 77 100
37 -2 40 -4 43 -34z"/>
<path d="M3819 4613 c-40 -10 -27 -71 17 -77 17 -3 20 -15 24 -117 5 -102 8
-120 33 -162 16 -28 40 -52 55 -58 40 -16 137 -6 161 15 19 17 20 17 31 -3 9
-17 20 -21 64 -21 59 0 80 14 74 52 -2 14 -12 24 -28 28 l-25 6 -1 163 c-1
128 -4 165 -15 172 -16 10 -83 12 -116 3 -43 -12 -41 -74 3 -74 24 0 24 0 24
-108 0 -94 -3 -111 -20 -129 -41 -44 -95 -42 -123 6 -14 24 -17 54 -17 164 0
114 -2 136 -16 141 -17 7 -99 6 -125 -1z"/>
<path d="M4282 4611 c-8 -4 -12 -21 -10 -37 2 -20 10 -30 28 -34 27 -6 25 -1
90 -205 24 -71 47 -136 52 -142 6 -7 23 -13 38 -13 33 0 41 15 76 140 14 52
29 99 32 104 2 5 19 -42 37 -104 18 -61 37 -115 41 -120 19 -17 52 -20 66 -6
8 8 36 81 62 163 32 100 58 161 79 187 40 52 30 70 -44 74 -69 3 -83 -7 -82
-55 1 -21 -4 -60 -12 -88 -7 -27 -16 -63 -20 -80 -9 -40 -17 -24 -45 95 -25
103 -41 130 -76 130 -23 0 -64 -42 -64 -66 0 -7 -6 -33 -14 -56 -8 -24 -20
-63 -27 -88 l-12 -45 -19 60 c-11 33 -23 89 -26 125 l-7 65 -65 3 c-36 1 -71
-2 -78 -7z"/>
<path d="M6268 4613 c-20 -5 -35 -50 -22 -63 5 -5 20 -10 34 -12 l25 -3 0
-129 0 -130 -32 -8 c-28 -7 -33 -13 -33 -37 0 -37 11 -41 131 -41 97 0 100 1
111 25 14 32 -6 58 -45 58 -22 0 -27 5 -32 38 -11 66 4 151 33 182 25 26 62
37 62 17 0 -5 11 -10 25 -10 31 0 47 29 43 78 -3 36 -4 37 -48 40 -36 2 -54
-3 -83 -23 -46 -30 -45 -30 -49 -2 -3 19 -9 22 -53 24 -27 0 -58 -1 -67 -4z"/>
<path d="M6592 4608 c-7 -7 -12 -24 -12 -39 0 -24 5 -28 33 -31 l32 -3 5 -125
c6 -146 19 -178 87 -211 50 -24 107 -19 147 12 23 18 24 18 29 -1 4 -17 14
-20 59 -20 64 0 91 16 86 51 -2 18 -10 25 -30 27 l-28 3 0 163 c0 113 -4 166
-12 174 -17 17 -123 15 -138 -2 -20 -26 -8 -61 23 -64 l27 -3 0 -105 c0 -58
-4 -113 -10 -123 -13 -25 -64 -45 -95 -37 -43 11 -55 57 -55 205 0 108 -3 130
-16 135 -28 11 -120 6 -132 -6z"/>
<path d="M782 2388 c-18 -18 -14 -46 7 -58 11 -5 49 -10 84 -10 49 0 68 4 80
18 22 24 21 39 -2 52 -27 14 -154 13 -169 -2z"/>
<path d="M1026 2247 c-11 -8 -17 -23 -14 -38 l3 -24 1915 -3 1915 -2 18 22
c18 22 18 23 -3 40 -21 17 -115 18 -1919 18 -1545 0 -1900 -2 -1915 -13z"/>
<path d="M5037 2242 c-23 -25 -21 -39 6 -54 17 -10 160 -12 691 -8 623 5 670
6 680 23 8 12 8 22 0 35 -10 16 -56 17 -686 20 -644 2 -676 1 -691 -16z"/>
<path d="M6734 2239 c-14 -15 -16 -24 -7 -37 9 -15 44 -17 362 -20 l351 -2 12
26 c24 52 10 54 -362 54 -327 0 -337 -1 -356 -21z"/>
<path d="M7634 2239 c-14 -15 -16 -24 -7 -37 9 -15 45 -17 368 -20 256 -2 362
1 371 9 19 16 18 55 -2 63 -9 3 -172 6 -363 6 -338 0 -348 -1 -367 -21z"/>
<path d="M9056 2239 c-11 -17 -12 -25 -3 -40 11 -18 27 -19 207 -19 202 0 220
3 220 42 0 32 -35 38 -224 38 -177 0 -185 -1 -200 -21z"/>
<path d="M8580 2241 c-41 -7 -32 -16 45 -43 72 -25 114 -24 124 5 14 36 -4 47
-73 46 -33 -1 -77 -4 -96 -8z"/>
<path d="M6554 2225 c-8 -21 2 -45 19 -45 8 0 20 7 27 15 10 12 10 18 0 30 -7
8 -19 15 -27 15 -7 0 -16 -7 -19 -15z"/>
<path d="M8875 2219 c-5 -14 -2 -25 6 -30 24 -15 44 -5 44 21 0 34 -40 41 -50
9z"/>
<path d="M1140 2122 c-85 -3 -109 -14 -88 -39 6 -8 34 -13 72 -13 36 0 67 -5
74 -12 10 -10 542 -14 2579 -16 2290 -2 2569 -1 2590 13 25 17 31 53 10 61
-14 5 -5089 11 -5237 6z"/>
</g>
</svg>
